<svg xmlns="http://www.w3.org/2000/svg" width="596.807" height="511.816" viewBox="0 0 596.807 511.816">
  <g id="Group_100" data-name="Group 100" transform="translate(-303.988 -247.467)">
    <g id="Group_92" data-name="Group 92" transform="translate(371.633 327.098)">
      <path id="Path_22" data-name="Path 22" d="M439.417,419.893H347.052l7.592-111.345h77.181Z" transform="translate(-141.087 -0.1)" fill="#110239"/>
      <path id="Path_23" data-name="Path 23" d="M474.352,325.526a6.037,6.037,0,0,0-5.013-2.681H362.791a6.037,6.037,0,0,0-5.013,2.681l-13.959,20.821a6.038,6.038,0,0,0,5.019,9.4H483.292a6.036,6.036,0,0,0,5.013-9.4Z" transform="translate(-163.917 76.442)" fill="#110239"/>
      <rect id="Rectangle_34" data-name="Rectangle 34" width="504.295" height="338.05" rx="4.091" fill="#110239"/>
      <rect id="Rectangle_35" data-name="Rectangle 35" width="457.859" height="289.756" transform="translate(23.218 22.397)" fill="#fefefe"/>
      <rect id="Rectangle_36" data-name="Rectangle 36" width="434.982" height="258.2" transform="translate(34.656 53.952)" fill="#e5e6ed"/>
      <rect id="Rectangle_37" data-name="Rectangle 37" width="434.982" height="21.36" transform="translate(34.656 53.952)" fill="#b3eef6"/>
      <rect id="Rectangle_38" data-name="Rectangle 38" width="135.088" height="17.832" transform="translate(313.436 144.982)" fill="#fefefe"/>
      <rect id="Rectangle_39" data-name="Rectangle 39" width="135.088" height="17.832" transform="translate(313.436 176.506)" fill="#fefefe"/>
      <rect id="Rectangle_40" data-name="Rectangle 40" width="135.088" height="17.831" transform="translate(313.436 208.031)" fill="#fefefe"/>
      <rect id="Rectangle_41" data-name="Rectangle 41" width="135.088" height="17.832" transform="translate(74.774 96.748)" fill="#fefefe"/>
      <rect id="Rectangle_42" data-name="Rectangle 42" width="135.088" height="17.831" transform="translate(74.774 128.273)" fill="#fefefe"/>
    </g>
    <g id="Group_95" data-name="Group 95" transform="translate(303.988 247.467)">
      <g id="Group_93" data-name="Group 93" transform="translate(0 213.416)">
        <path id="Path_24" data-name="Path 24" d="M575.2,281.057H320.164a16.172,16.172,0,0,0-16.176,16.17v82.24a16.176,16.176,0,0,0,16.176,16.17H479.943l60.854,51.75-28.9-51.75h63.3a16.174,16.174,0,0,0,16.17-16.17v-82.24A16.17,16.17,0,0,0,575.2,281.057Z" transform="translate(-303.988 -281.057)" fill="#8c6ed9"/>
        <rect id="Rectangle_43" data-name="Rectangle 43" width="171.873" height="9.896" transform="translate(96.104 22.175)" fill="#fff"/>
        <rect id="Rectangle_44" data-name="Rectangle 44" width="171.873" height="9.896" transform="translate(96.104 42.365)" fill="#fff"/>
        <rect id="Rectangle_45" data-name="Rectangle 45" width="171.873" height="9.896" transform="translate(96.104 62.554)" fill="#fff"/>
        <rect id="Rectangle_46" data-name="Rectangle 46" width="114.075" height="9.896" transform="translate(96.104 82.744)" fill="#fff"/>
        <path id="Path_25" data-name="Path 25" d="M372.847,317.736a33.156,33.156,0,1,1-33.159-33.159A33.158,33.158,0,0,1,372.847,317.736Z" transform="translate(-290.352 -262.212)" fill="#110239"/>
        <ellipse id="Ellipse_10" data-name="Ellipse 10" cx="9.357" cy="9.65" rx="9.357" ry="9.65" transform="translate(39.98 36.012)" fill="#fff"/>
        <path id="Path_26" data-name="Path 26" d="M326.063,289.992h-.337A16.611,16.611,0,0,0,309.112,306.6v10.591a32.23,32.23,0,0,0,33.566,0V306.6A16.611,16.611,0,0,0,326.063,289.992Z" transform="translate(-276.556 -233.223)" fill="#fff"/>
      </g>
      <g id="Group_94" data-name="Group 94" transform="translate(309.43)">
        <path id="Path_27" data-name="Path 27" d="M623.9,247.467H368.86a16.166,16.166,0,0,0-16.17,16.17v82.24a16.166,16.166,0,0,0,16.17,16.17H442.7L422.916,413.8l51.743-51.75H623.9a16.17,16.17,0,0,0,16.17-16.17v-82.24A16.17,16.17,0,0,0,623.9,247.467Z" transform="translate(-352.69 -247.467)" fill="#d0d1de"/>
        <rect id="Rectangle_47" data-name="Rectangle 47" width="171.874" height="9.896" transform="translate(96.099 22.176)" fill="#fff"/>
        <rect id="Rectangle_48" data-name="Rectangle 48" width="171.874" height="9.896" transform="translate(96.099 42.366)" fill="#fff"/>
        <rect id="Rectangle_49" data-name="Rectangle 49" width="171.874" height="9.896" transform="translate(96.099 62.556)" fill="#fff"/>
        <rect id="Rectangle_50" data-name="Rectangle 50" width="114.075" height="9.896" transform="translate(96.099 82.745)" fill="#fff"/>
        <path id="Path_28" data-name="Path 28" d="M421.548,284.146a33.156,33.156,0,1,1-33.153-33.159A33.157,33.157,0,0,1,421.548,284.146Z" transform="translate(-339.06 -228.622)" fill="#110239"/>
        <path id="Path_29" data-name="Path 29" d="M377.693,262.786a9.36,9.36,0,1,1-9.353-9.651A9.5,9.5,0,0,1,377.693,262.786Z" transform="translate(-319.005 -217.123)" fill="#fff"/>
        <path id="Path_30" data-name="Path 30" d="M374.764,256.4h-.337a16.616,16.616,0,0,0-16.615,16.614v10.591a32.268,32.268,0,0,0,33.566,0V273.016A16.616,16.616,0,0,0,374.764,256.4Z" transform="translate(-325.264 -199.633)" fill="#fff"/>
      </g>
    </g>
    <g id="Group_97" data-name="Group 97" transform="translate(697.055 581.937)">
      <rect id="Rectangle_51" data-name="Rectangle 51" width="130.952" height="41.56" rx="2.345" fill="#8c6ed9"/>
      <g id="Group_96" data-name="Group 96" transform="translate(35.238 10.54)">
        <path id="Path_31" data-name="Path 31" d="M388.529,306.883a4.49,4.49,0,0,1-3.5,4.39,5,5,0,0,1,4.162,5.108c0,3.469-3.031,5.636-7.8,5.636H371.4V301.769h9.613C385.613,301.769,388.529,303.764,388.529,306.883Zm-5.432.921c0-1.213-.9-1.931-2.37-1.906h-4.041v3.933h4.041C382.2,309.831,383.1,309.075,383.1,307.8Zm.635,7.917c0-1.271-1.156-2.078-3.005-2.052h-4.041v4.244h4.041C382.576,317.913,383.732,317.106,383.732,315.721Z" transform="translate(-371.4 -301.769)" fill="#fff"/>
        <path id="Path_32" data-name="Path 32" d="M384.014,317.742c2.338,0,3.958-1.588,3.958-4.212v-11.76h5.286v11.76c0,5.337-3.583,8.717-9.276,8.717-5.719,0-9.384-3.38-9.384-8.717v-11.76h5.286v11.76A3.947,3.947,0,0,0,384.014,317.742Z" transform="translate(-354.279 -301.769)" fill="#fff"/>
        <path id="Path_33" data-name="Path 33" d="M390.5,315.55v6.468h-5.286V315.7l-7.453-13.927h5.286l4.8,8.7,4.682-8.7h5.28Z" transform="translate(-337.335 -301.769)" fill="#fff"/>
      </g>
    </g>
    <g id="Group_99" data-name="Group 99" transform="translate(419.939 326.813)">
      <path id="Path_34" data-name="Path 34" d="M384.818,279.91a74.955,74.955,0,0,1-20.458.9,30.185,30.185,0,0,1-7.186-1.563c.33,8.52.394,28.489-5.667,36.762,0,0,2.179,9.816,19.912,10.109s19.728-13.082,19.728-13.082S385.181,292.477,384.818,279.91Z" transform="translate(-165.544 -156.667)" fill="#f88667"/>
      <path id="Path_35" data-name="Path 35" d="M351.6,316.322a6.069,6.069,0,0,0,.267.693l.045.089a10.131,10.131,0,0,0,.552,1.036l.025.051a13.357,13.357,0,0,0,.9,1.258l.153.178a14.336,14.336,0,0,0,3.215,2.789l.229.159a19.125,19.125,0,0,0,2.4,1.258c.114.051.241.1.356.146a23.43,23.43,0,0,0,3.113,1.061,24.951,24.951,0,0,1,5.223-12.586,31.3,31.3,0,0,1,19.963-11.589c-1.512-6.652-3.05-14.766-3.228-20.954a74.955,74.955,0,0,1-20.458.9,30.185,30.185,0,0,1-7.186-1.563c.33,8.52.394,28.489-5.667,36.762l.057.21Z" transform="translate(-165.544 -156.667)" fill="#e45940"/>
      <path id="Path_36" data-name="Path 36" d="M359.316,275.461s29.055-8.577,33.68-1.544,3.787,18.4,5.718,23.406,9.137,10.286,9.906,12.288-4.829,5.833-5.61,7.4-3.7,18.006-8.749,21.634-32.092-6-38.795-18.775S351.527,279.667,359.316,275.461Z" transform="translate(-164.604 -200.041)" fill="#f88667"/>
      <path id="Path_37" data-name="Path 37" d="M385.735,283.4a28.821,28.821,0,0,1-3.063,15.007c-1.734,3.475,6.938,12.714,4.524,16.913-1.607,2.8-3.958,2.09-6.093-3.437-.731-1.887-2.814-3.2-4.7-4.009-7.11-3.075-8.768,7.758-2.389,10.979,4.46,2.249,1.8,13.552,1.8,13.552-4.791,3.685-20.63-.763-18.9-12.326,1.105-7.364,1.595-10.166-.985-11.958-4.67-3.247-10.744-12.262-3.063-19.9,10.592-10.528.934-13.876,13.177-16.913S388.416,275.745,385.735,283.4Z" transform="translate(-177.788 -202.879)" fill="#110239"/>
      <path id="Path_38" data-name="Path 38" d="M351.556,283.927c.686-2.668,5.521-6.112,7.91-7.891A35.227,35.227,0,0,1,372,270.382a32.283,32.283,0,0,1,13.965-.47c3.971.756,7.3,2.522,11.366,2.98,3.755.432,7.491.261,10.127-1.963a25.935,25.935,0,0,1,.5,9.194c-.661,3.622-3.056,6.868-5.223,10.1-5.9,8.793-21.926,13.667-33.229,9.016-5.464-2.243-10.363-4.187-13.044-8.933A28.669,28.669,0,0,0,351.556,283.927Z" transform="translate(-165.281 -209.6)" fill="#110239"/>
      <path id="Path_39" data-name="Path 39" d="M403.074,274.636l28.089,62.335s-8.221,9.245-10.966,7.192-44.863-52.633-48.973-55.257S403.074,274.636,403.074,274.636Z" transform="translate(-61.741 -181.362)" fill="#110239"/>
      <path id="Path_40" data-name="Path 40" d="M365,343.3s.115,17.923,11.074,22.034c0,0,56.172-23.279,67.475-25.509s52.4-2.58,52.4-2.58l-41.444-73.981s-19.867,39.729-38.02,52.747S365,343.3,365,343.3Z" transform="translate(-93.308 -242.259)" fill="#8c6ed9"/>
      <path id="Path_41" data-name="Path 41" d="M380.108,303.583c4.447-1.766,9.079-3.6,13.647-5.356-6.887-7.745-10.458-18.552-11.824-25.351-4.257,2.44-8.672,4.8-12.948,6.983A51.574,51.574,0,0,0,380.108,303.583Z" transform="translate(-71.985 -190.785)" fill="#110239"/>
      <path id="Path_42" data-name="Path 42" d="M444.886,299.986c11.7,28.216,7.567,56.744-9.232,63.707s-39.906-10.267-51.6-38.483-7.567-56.744,9.232-63.707S433.189,271.764,444.886,299.986Z" transform="translate(-26.948 -259.955)" fill="#01c7e2"/>
      <path id="Path_43" data-name="Path 43" d="M436.042,295.1c9.95,24,6.43,48.268-7.859,54.19s-33.947-8.73-43.9-32.734-6.436-48.268,7.853-54.2S426.086,271.09,436.042,295.1Z" transform="translate(-20.366 -254.128)" fill="#110239"/>
      <path id="Path_44" data-name="Path 44" d="M381.843,293.968c-1.334-.813-.959-5.833-.686-7.135.426-2.046,1.836-4.708.419-6.658-2.5-3.456-6.03,5.839-6.487,7.186-.877,2.579-1.195,4.339-.642,6.195.457,1.544,3.228,6.379,5.375,8.114-.26.927-.546,1.887-.9,2.91a61.037,61.037,0,0,1,6.773,3.431c2.713,1.557,2.567,3.494,5.108,5.235l2.535-5.82C392.269,306.1,384.073,295.315,381.843,293.968Z" transform="translate(-44.201 -155.807)" fill="#f88667"/>
      <path id="Path_45" data-name="Path 45" d="M391.763,279.809c-2.427-2.618-6.208-1.614-9.143.534-2.148,1.563-8.323,6.557-6.659,10.178,1.385,3.018,9.333-3.653,9.333-3.653-2.929,2.522-8.387,4.536-7.014,7.059,1.531,2.808,8.469-1.195,9.988-2.313-1.556.4-9.308,5.1-6.2,7.561,2.128,1.677,7.821-1.849,9.53-3.05-2.287.692-5.4,2.726-4.8,5.9.991,1.728,4.448.585,6.373-.2,2.91-1.175,5.642-1.633,5.877-5.242a15.251,15.251,0,0,0,.1-1.957,19.651,19.651,0,0,0-2.554-7.853A34.127,34.127,0,0,0,391.763,279.809Z" transform="translate(-36.129 -162.049)" fill="#f88667"/>
      <path id="Path_46" data-name="Path 46" d="M382.185,329.825a31.888,31.888,0,0,1-3.247-6.906c-.724-2.071-1.233-4.187-1.95-6.252-.686-1.995-1.506-3.977-1.4-6.125a17.617,17.617,0,0,1,.756-3.742c.413-1.588,1-3.132,1.322-4.74.292-1.436.165-2.827.438-4.257a25.384,25.384,0,0,1,2.472-7.853,29.524,29.524,0,0,1,3.609-4.969,18.489,18.489,0,0,1,2.135-2.275,5.641,5.641,0,0,0,1.957-2.408,2.3,2.3,0,0,0-1.677-3.107c-2.5-.635-6.436.515-7.961,2.611-2.115,2.91-3.113,6.474-5.47,9.283-7.2,8.583-13.965-1.525-22.371-5.153a50.32,50.32,0,0,1-8.126-5.242c-1.5-1.131-7.955-7.262-11-5.661-2.243,1.175,2.147,6.328,4.276,7.586.839.5,8.037,6.347,8.978,6.627-2.122-.362-7.643-4.009-12.078-7.478-3.19-2.5-6.277-4.956-8.018-3.533-5.35,4.384,15.642,14.416,17.281,15.338-1.747.146-18.184-11.487-19.734-7.211-.858,2.351,2.554,4.683,5.343,6.2,3.494,1.9,9.365,3.259,10.687,4.282-2.478.845-13.355-6.557-13.362-2.039,0,2.954,6.754,5.165,9.3,5.941,2.624.8,10.318,6.036,12.758,7.192,8.12,3.869,11.475,3.425,14.677,8.285,2.04,3.107,5.674,19.48,8.622,25.713Z" transform="translate(-322.238 -191.377)" fill="#f88667"/>
      <path id="Path_47" data-name="Path 47" d="M451.705,283.02c-7.243,21.087-22.733,58.389-27.841,55.771-9.594-4.918-30.237-21.793-45.656-32.117-11.951-8-17.93-10.331-17.93-10.331l10.731,50.9s50.886,38.649,61.547,32.727c8.387-4.657,29.023-63.421,36.3-87.774C468.86,292.194,451.826,283.115,451.705,283.02Z" transform="translate(-118.588 -136.478)" fill="#01c7e2"/>
      <path id="Path_48" data-name="Path 48" d="M395,322.635c-5.731-7.446-27.619-28.883-33.54-33.452l1.709,24.144s51.292,38.56,62.646,33.744C416.04,340.787,401.967,331.677,395,322.635Z" transform="translate(-112.276 -103.479)" fill="#00a7cc"/>
      <path id="Path_49" data-name="Path 49" d="M445.985,321.618S383.4,346.88,376.592,345.1s-29.5-66.3-29.5-66.3l-18.952,7.7s20.242,93.067,33.273,97.412,90.7-18.082,90.7-18.082S453.387,343.233,445.985,321.618Z" transform="translate(-290.64 -159.06)" fill="#01c7e2"/>
      <path id="Path_50" data-name="Path 50" d="M352.407,324.713c-5.515,1.982-11.125,3.926-16.761,5.585,26.545-3.507,76.281-17.866,76.281-17.866a135.823,135.823,0,0,0-1.36-23.654C395.16,305.461,373.246,317.234,352.407,324.713Z" transform="translate(-250.456 -105.658)" fill="#00a7cc"/>
      <path id="Path_51" data-name="Path 51" d="M404.654,279.279c-2.865-8.825-11.475-13.946-19.239-11.43a13.38,13.38,0,0,0-6.468,4.689,77.319,77.319,0,0,0,3.609,11.017,74.5,74.5,0,0,0,9.657,16.843,13.024,13.024,0,0,0,3.564-.578C403.542,297.3,407.513,288.1,404.654,279.279Z" transform="translate(-18.637 -221.128)" fill="#d0d1de"/>
      <g id="Group_98" data-name="Group 98" transform="translate(150.218 153.937)">
        <path id="Path_52" data-name="Path 52" d="M351.11,368.928c-2.2,21.723-3.927,67.373-5.229,73.758H448.567c1.811-34.106,1.207-83.5-.483-101.676-2.942-31.666-10.731-50.9-10.731-50.9s-7.669-2.427-16.761-5.928c0,0-18.9,11.551-36.5.159,0,0-31.768,7.523-35.605,9.359C345.3,295.22,353.473,345.737,351.11,368.928Z" transform="translate(-345.881 -284.184)" fill="#01c7e2"/>
        <path id="Path_53" data-name="Path 53" d="M378.271,368.42a81.108,81.108,0,0,0-5.877-29.62,27.05,27.05,0,0,1-1.887-6.652c-.889-6.817-2.357-11.29-4.346-15.166-2.293-3.469-4.619-6.919-6.887-10.407-1.264-1.7-2.586-3.513-4.047-5.648a97.652,97.652,0,0,1-6.271-11.093c1.2,15.947,3.336,37.245,2.154,48.852-2.2,21.723-3.927,67.373-5.229,73.758h47.791c-6.144-7.9-9.829-17.523-13.438-29.258A52.377,52.377,0,0,1,378.271,368.42Z" transform="translate(-345.881 -253.942)" fill="#00a7cc"/>
      </g>
    </g>
  </g>
</svg>
