<svg xmlns="http://www.w3.org/2000/svg" width="596.807" height="422.263" viewBox="0 0 596.807 422.263">
  <g id="Group_116" data-name="Group 116" transform="translate(-1174 -3836.239)">
    <g id="Group_103" data-name="Group 103" transform="translate(149 3791.462)">
      <g id="Group_114" data-name="Group 114" transform="translate(1002.839 -200.384)">
        <g id="Group_104" data-name="Group 104" transform="translate(108.643 256.975)">
          <path id="Path_54" data-name="Path 54" d="M493.063,615.061H60.057c-11.958,0-21.652-8.721-21.652-19.485V266.86c0-10.76,9.695-19.48,21.652-19.48H493.063c11.963,0,21.658,8.721,21.658,19.48V595.576C514.721,606.34,505.026,615.061,493.063,615.061Z" transform="translate(-38.405 -247.38)" fill="#d0d1de"/>
          <rect id="Rectangle_53" data-name="Rectangle 53" width="433.009" height="321.488" transform="translate(21.651 23.096)" fill="#fff"/>
        </g>
        <g id="Group_105" data-name="Group 105" transform="translate(156.752 245.161)">
          <circle id="Ellipse_11" data-name="Ellipse 11" cx="142.186" cy="142.186" r="142.186" transform="translate(0 145.61) rotate(-30.8)" fill="#110239"/>
          <path id="Path_55" data-name="Path 55" d="M80.208,256.558a142.183,142.183,0,0,1,40.8,281.423Z" transform="translate(94.239 -202.253)" fill="#8766de"/>
          <path id="Path_56" data-name="Path 56" d="M82.748,488.013c-.234-.016-.458-.048-.692-.069l9.918-141.6,118.708-79.412A142.122,142.122,0,0,1,82.748,488.013Z" transform="translate(102.229 -151.024)" fill="#01c7e2"/>
          <path id="Path_57" data-name="Path 57" d="M180.749,437.984a143.68,143.68,0,0,0,24.463,1.161l-5.659-142.1L58.618,278.24A142.189,142.189,0,0,0,180.749,437.984Z" transform="translate(-4.588 -102.129)" fill="#e5e6ed"/>
        </g>
        <path id="Path_58" data-name="Path 58" d="M194.266,344.529,62.376,275.488a148.663,148.663,0,0,0-3.711,130.734Z" transform="translate(99.906 131.132)" fill="#01c7e2"/>
        <path id="Path_59" data-name="Path 59" d="M86.733,305.466,229.9,279.544a146.626,146.626,0,0,1,2.193,18.687,144.478,144.478,0,0,1-16.43,74.775Z" transform="translate(279.205 148.67)" fill="#8766de"/>
        <path id="Path_60" data-name="Path 60" d="M64.47,274.984c-1.5-.633-6.889,1.4-10.073,3.471-1.81,1.176-5.782,2.422-8.87,3.274a33.406,33.406,0,0,1,.655,5.233c-.005-.08,4.946-.862,5.462-1.027,1.672-.527,2.971-1.831,4.893-1.326a14.337,14.337,0,0,1,2.609,1.294c1.006.543,3.471,3.008,4.69,2.534,1.837-.713-1.155-2.822-1.491-3.413-.5-.878-.3-2.481,1.049-2.124,1.853.49,5.015,2.694,7.006,1.773,2.508-1.161-5.292-3.4-6.623-4.238,2.114,1.081,9.067,3.2,9.631,1.981,1.086-2.337-6.282-3.567-8.311-4.573,2.14,1.038,4.706,1.613,5.808,1.235C73.52,278.178,65.971,275.617,64.47,274.984Z" transform="translate(101.033 128.443)" fill="#f88667"/>
        <path id="Path_61" data-name="Path 61" d="M62.309,311.767c-1.565.458-6.682-2.193-9.6-4.616-1.661-1.379-5.462-3.072-8.428-4.281a33.417,33.417,0,0,0,1.251-5.122c-.011.08,4.818,1.432,5.313,1.65,1.6.724,2.736,2.172,4.7,1.89a14.292,14.292,0,0,0,2.742-.985c1.065-.421,3.8-2.582,4.957-1.97,1.741.921-1.475,2.667-1.879,3.216-.591.814-.586,2.428.793,2.231,1.9-.271,5.3-2.1,7.171-.948,2.353,1.443-5.654,2.758-7.07,3.439,2.22-.831,9.375-2.124,9.8-.852.8,2.449-6.655,2.816-8.79,3.578,2.247-.777,4.861-1.054,5.91-.548C71.669,309.648,63.874,311.314,62.309,311.767Z" transform="translate(95.628 227.387)" fill="#f88667"/>
        <g id="Group_106" data-name="Group 106" transform="translate(69.139 405.811)">
          <path id="Path_62" data-name="Path 62" d="M34.127,334.953c5.239,4.3,12.948,3.748,17.984-.783,8.273-7.432,23.686-21.194,28.7-25.049,6.969-5.356,38.247-24.953,38.247-24.953l-4.7-8.832s-38.982,17.239-44.492,21.578-37.5,23.553-38.8,31.315C30.618,330.944,32,333.207,34.127,334.953Z" transform="translate(-30.985 -275.336)" fill="#fd425f"/>
          <path id="Path_63" data-name="Path 63" d="M34.127,334.953c5.239,4.3,12.948,3.748,17.984-.783,8.273-7.432,23.686-21.194,28.7-25.049,6.969-5.356,38.247-24.953,38.247-24.953l-4.7-8.832s-38.982,17.239-44.492,21.578-37.5,23.553-38.8,31.315C30.618,330.944,32,333.207,34.127,334.953Z" transform="translate(-30.985 -275.336)" fill="#5f479d"/>
        </g>
        <path id="Path_64" data-name="Path 64" d="M37.59,279.347c.2.218.383.447.6.655a41.18,41.18,0,0,0,6.277,5.468c1.395.926,3.567,1.533,4.77,2.507a13.67,13.67,0,0,0,1.5,1.06c-.7,3.918-2.433,14.215-2.156,18.234,0,0-12.527-.884-17.09-5.947C31.489,301.324,36.68,287.376,37.59,279.347Z" transform="translate(40.334 147.818)" fill="#f88667"/>
        <path id="Path_65" data-name="Path 65" d="M50.075,292.923c.256-1.555.49-2.917.66-3.886a13.67,13.67,0,0,1-1.5-1.06c-1.2-.974-3.375-1.581-4.77-2.507A41.18,41.18,0,0,1,38.187,280c-.213-.208-.394-.437-.6-.655-.91,8.029-6.1,21.977-6.1,21.977,1.645,1.821,4.323,3.1,7.076,3.993C39.517,299.493,43.356,294.249,50.075,292.923Z" transform="translate(40.334 147.818)" fill="#e45940"/>
        <path id="Path_66" data-name="Path 66" d="M33.937,322.858s.346,12.485,2.295,14.188,26.8,2.454,28.93.176.884-6.117-4.445-7.6c-5.718-1.581-8.518-.032-12.1-1.522s-2.635-7.134-2.635-7.134Z" transform="translate(50.919 327.785)" fill="#110239"/>
        <path id="Path_67" data-name="Path 67" d="M23.067,322.112s-1.917,12.16-.032,13.943,27.189,3.764,29.409,1.571,1.118-6.075-4.153-7.757c-5.649-1.8-8.385-.66-12.032-1.991-2.864-1.043-.937-6.836-.937-6.836Z" transform="translate(0.191 328.105)" fill="#110239"/>
        <g id="Group_107" data-name="Group 107" transform="translate(22.161 504.522)">
          <path id="Path_68" data-name="Path 68" d="M41.615,364.483A372.647,372.647,0,0,1,46.8,295.054c4.131.155,8.273.522,12.4,2.4,7.581,3.45,15.205,6.756,22.824,10.078C75.842,320.327,62.3,362.1,60.669,370.845c-2.023,10.871-24.756,66.336-24.756,66.336l-13.752-1.725C22.385,426.512,41.663,367.481,41.615,364.483Z" transform="translate(-22.161 -288.788)" fill="#d0d1de"/>
          <path id="Path_69" data-name="Path 69" d="M50.9,300.777a126.55,126.55,0,0,0,12.272,4.989C57.1,318.32,46.027,353.053,43.53,362.28c-1.927-5.824-11.26-19.9-14.838-35.308a82.24,82.24,0,0,1-1.161-31.417l.021-.128C35.267,295.959,42.737,296.8,50.9,300.777Z" transform="translate(-3.228 -287.175)" fill="#b8b9cd"/>
          <path id="Path_70" data-name="Path 70" d="M39.693,305.589c5.361,1.81,15.109,4.4,22.478,7.033C67.3,325.581,82.449,356.172,83.237,370c.868,15.264-4.414,73.082-4.414,73.082H63.086s-1.459-65.17-3.663-69.36c-7.272-13.81-15.3-24.751-19.869-33.344-7.65-14.412-10.254-23.67-11.6-30.416-.6-2.981-3.2-12.964,1.858-16.089C33.991,295.064,35.2,304.072,39.693,305.589Z" transform="translate(-2.303 -293.877)" fill="#d0d1de"/>
        </g>
        <g id="Group_108" data-name="Group 108" transform="translate(41.258 446.939)">
          <path id="Path_71" data-name="Path 71" d="M72.253,362.531s-13.219,5.34-26.236,4.089c-9.642-.927-14.63-1.081-20.268-4.121,0,0,6.032-46.978,12.985-61.789S57.1,283.061,57.1,283.061s9,5.223,16.35,5.111c0,0-.176,28.861-.74,40.387S72.253,362.531,72.253,362.531Z" transform="translate(-25.748 -283.061)" fill="#8766de"/>
          <path id="Path_72" data-name="Path 72" d="M47.791,308.194c.043-1.272.08-2.614.117-4.036l.016-.516c.032-1.358.064-2.763.09-4.2l.016-.719c.032-1.6.064-3.232.09-4.855v-.075a9.432,9.432,0,0,1-1.778-.122c-4.6-.895-8.593-3.466-12.57-5.808-.671-.394-1.379-.724-2.082-1.065-.8,6.17,1.98,13.7,3.178,18.607,3.311,13.571,5.106,30.751,2.263,43.859a70.3,70.3,0,0,0,10.036-2.885s-.1-22.44.458-33.972c.053-1.017.1-2.209.144-3.471Z" transform="translate(-0.663 -266.907)" fill="#8766de"/>
        </g>
        <path id="Path_73" data-name="Path 73" d="M103.866,357.157l5.532-10.946S81.979,328.658,71.96,318.548s-20.859-30.677-28.5-31.97-15.333,2.917-10.9,13.555,26.838,24.73,31.406,29.415S99.383,354.639,103.866,357.157Z" transform="translate(39.329 178.105)" fill="#8766de"/>
        <path id="Path_74" data-name="Path 74" d="M36.289,275.961s20.231-2.316,21.631,1.086,1.7,12.98,3.013,15,3.684,4.445,2.8,5.75-1.863.985-2.422,2.449-.346,9.743-3.019,10.978-16.3.506-21.232-7.257S26.52,276.68,36.289,275.961Z" transform="translate(37.87 129.85)" fill="#f88667"/>
        <path id="Path_75" data-name="Path 75" d="M34.839,276.191,48.255,282.4a30.116,30.116,0,0,0,3.439,14.657s-1.209,1.853-2.476.8-2.082-1.613-2.374-3.562-1.464-7.171-4.983-4.595.2,5.643,1.991,6.4c0,0,2.843,10.185-2.566,9.46,0,0-4.989-3.157-9.285-15.391S31.5,273.9,34.839,276.191Z" transform="translate(34.247 131.521)" fill="#110239"/>
        <path id="Path_76" data-name="Path 76" d="M64.323,279.6s4.8,6.9-6.351,11.51-27.179-7.539-27.179-7.539.41-6.048,9.3-8.641c6.644-1.933,12.873-1.661,16.265,2.188C62.124,283.659,64.323,279.6,64.323,279.6Z" transform="translate(37.324 123.658)" fill="#110239"/>
        <g id="Group_113" data-name="Group 113" transform="translate(484.863 405.01)">
          <path id="Path_77" data-name="Path 77" d="M136.7,280.2c-.186.218-.357.442-.554.655a40.031,40.031,0,0,1-5.883,5.43c-1.315.932-3.386,1.576-4.515,2.545a13.458,13.458,0,0,1-1.416,1.065c.783,3.743,2.742,13.6,2.593,17.468,0,0,12.016-1.2,16.265-6.2C143.187,301.163,137.794,287.9,136.7,280.2Z" transform="translate(-43.092 -253.49)" fill="#f88667"/>
          <path id="Path_78" data-name="Path 78" d="M136.746,280.53c-.186.218-.357.442-.554.655a40.268,40.268,0,0,1-5.878,5.43c-1.32.932-3.391,1.576-4.515,2.545a12.851,12.851,0,0,1-1.422,1.065c.17.809.4,1.938.644,3.194.059,0,.106-.016.16-.016a14.269,14.269,0,0,1,14.412,10.807,12.035,12.035,0,0,0,3.642-2.72S137.849,288.228,136.746,280.53Z" transform="translate(-42.88 -252.076)" fill="#e45940"/>
          <path id="Path_79" data-name="Path 79" d="M147.578,321.713s.618,12-1.129,13.784-25.507,4.376-27.727,2.353-1.31-5.8,3.689-7.619c5.361-1.954,8.167-.676,11.489-2.375s1.986-7.044,1.986-7.044Z" transform="translate(-72.282 -77.895)" fill="#110239"/>
          <path id="Path_80" data-name="Path 80" d="M156.16,320.988s3.333,11.367,1.752,13.294-25.47,6.953-27.86,5.138-1.815-5.66,3-7.917c5.169-2.422,8.071-1.395,11.233-3.381s1.352-7.193,1.352-7.193Z" transform="translate(-24.291 -77.393)" fill="#110239"/>
          <path id="Path_81" data-name="Path 81" d="M163.895,362.233a358.043,358.043,0,0,0-3.248-66.885c-3.977.043-7.97.293-11.984,2-7.379,3.13-14.8,6.117-22.2,9.12,5.627,12.458,17.6,52.963,18.953,61.411,1.677,10.5,9.008,68.019,9.008,68.019l13.555-.458C167.989,426.834,163.777,365.119,163.895,362.233Z" transform="translate(-33.873 -187.999)" fill="#8766de"/>
          <path id="Path_82" data-name="Path 82" d="M138.375,300.266a121.06,121.06,0,0,1-11.926,4.493c5.526,12.224,17.367,52.409,18.969,61.279,2-5.547,9.828-25.3,13.656-40.031a78.982,78.982,0,0,0,1.9-30.176l-.011-.122C153.527,296.028,146.323,296.646,138.375,300.266Z" transform="translate(-33.929 -186.443)" fill="#644ba8"/>
          <path id="Path_83" data-name="Path 83" d="M173.7,297.678c-5.186,1.645-14.609,3.972-21.738,6.373-5.159,12.373-19.081,48.048-21.668,61.119-3.594,18.085-9.588,71.7-9.588,71.7l15.285,2.012s15.359-72.027,17.553-76.015c7.23-13.156,15.141-23.537,19.683-31.725,10.973-19.778,11.665-29.452,13.15-36.426C182.339,295.783,178.048,296.3,173.7,297.678Z" transform="translate(-58.749 -190.75)" fill="#8766de"/>
          <g id="Group_109" data-name="Group 109" transform="translate(12.063 15.274)">
            <path id="Path_84" data-name="Path 84" d="M121.6,278.649c1.459.165,4.792,4.126,6.378,7.145.905,1.714,3.471,4.435,5.516,6.453a31.192,31.192,0,0,0-2.806,3.823c.037-.064-3.5-2.848-3.833-3.2-1.081-1.15-1.523-2.742-3.253-3.184a12.221,12.221,0,0,0-2.614-.128c-1.027-.021-4.041.831-4.786-.074-1.129-1.368,2.14-1.709,2.662-2.023.777-.469,1.326-1.81.112-2.124-1.666-.431-5.116-.085-6.272-1.682-1.459-2.007,5.638-.341,7.049-.421-2.13-.075-8.513-1.464-8.417-2.667.17-2.311,6.49-.043,8.524.059-2.135-.122-4.4-.8-5.095-1.581C113.111,277.185,120.149,278.489,121.6,278.649Z" transform="translate(-111.337 -278.054)" fill="#f88667"/>
            <path id="Path_85" data-name="Path 85" d="M202.606,325.4c1.012-6.437-3.2-12.559-9.413-14.534-10.19-3.237-29.117-9.322-34.755-11.6-7.842-3.168-39.333-19.56-39.333-19.56l-5.031,8.2s33.285,23.931,39.567,26.385,37.805,19.624,44.875,16.919C200.992,330.265,202.19,328.018,202.606,325.4Z" transform="translate(-99.501 -270.899)" fill="#01c7e2"/>
            <path id="Path_86" data-name="Path 86" d="M202.606,325.4c1.012-6.437-3.2-12.559-9.413-14.534-10.19-3.237-29.117-9.322-34.755-11.6-7.842-3.168-39.333-19.56-39.333-19.56l-5.031,8.2s33.285,23.931,39.567,26.385,37.805,19.624,44.875,16.919C200.992,330.265,202.19,328.018,202.606,325.4Z" transform="translate(-99.501 -270.899)" fill="#01c7e2"/>
          </g>
          <g id="Group_111" data-name="Group 111" transform="translate(83.692 45.576)">
            <g id="Group_110" data-name="Group 110">
              <path id="Path_87" data-name="Path 87" d="M128.055,360.586a105.981,105.981,0,0,0,24.756.165c9.242-1.161,17.654-4.584,19.6-8.071,0,0-6.777-38.444-13.879-52.489s-18.165-16.446-18.165-16.446-8.5,5.281-15.578,5.377c0,0,.99,27.748,1.858,38.817S128.055,360.586,128.055,360.586Z" transform="translate(-124.791 -283.746)" fill="#01c7e2"/>
              <path id="Path_88" data-name="Path 88" d="M138.022,305.32c1.012-4.749,3.466-12.069,2.524-17.984-.66.351-1.336.687-1.965,1.086-3.759,2.369-7.528,4.951-11.926,5.942a9.546,9.546,0,0,1-1.7.17c.309,6.74.665,13.571,1,17.883.868,11.063,1.406,32.646,1.406,32.646s3.439.484,8.513.708C132.762,333.244,135.216,318.47,138.022,305.32Z" transform="translate(-124.095 -268.223)" fill="#00a7cc"/>
            </g>
          </g>
          <path id="Path_89" data-name="Path 89" d="M153.815,285.809s-5.585-10.515-12.4-9.8-13.454,2.683-14.258,5.361.17,8.534-1.464,11.3-4.919,6.58-3.839,7.661c.862.868,2.854,2.295,3.088,2.784s2.721,9.253,4.19,10.115,14.4-4.818,16.259-8.811S154.7,292.714,153.815,285.809Z" transform="translate(-54.741 -271.761)" fill="#f88667"/>
          <path id="Path_90" data-name="Path 90" d="M142.442,277.7s-5.468,15.216-19.07,13.938c0,0-3.338-6.2-.053-11.053C125.874,276.815,133.615,273.307,142.442,277.7Z" transform="translate(-53.719 -273.138)" fill="#110239"/>
          <path id="Path_91" data-name="Path 91" d="M175.514,335.37c-.7-7.56-4.456-11.952-9.892-16.807-6.543-5.846-10.776-11.915-13.139-20.433-2.172-7.826-1.113-15.349-8.614-20.769-5.585-4.036-14.486-1.746-18.133,1.145a3.616,3.616,0,0,1-.107.825s-5.047,4.792,3.045,11.606c2.87,2.422,4.217,6.378,4.477,7.091a5.047,5.047,0,0,1,1.709-1.927,1.923,1.923,0,0,1,2.886.2c1.608,1.645-.788,4.674-2.311,4.9-.261.037-.639.41-1.044.862.815,2.241,2.4,8.279,3.562,20.55.319,3.359,1.906,5.84,3.945,8.412,2.273,2.864,3.929,2.976,5.265,6.4,1.438,3.679-1.469,12.378,5.478,16.493,3.083,1.831,10.451,1.437,12.059.884C174.183,351.528,176.371,344.735,175.514,335.37Z" transform="translate(-44.199 -275.185)" fill="#110239"/>
          <g id="Group_112" data-name="Group 112" transform="translate(0 54.885)">
            <path id="Path_92" data-name="Path 92" d="M130.452,295.464a10.736,10.736,0,0,1-5.537.809,6.5,6.5,0,0,0-2.609-.208,13.774,13.774,0,0,1-3.008.043,5.334,5.334,0,0,0-2.955.341c-1.075.634.309,1.422,1.3,1.815,1.081.426,4.616-.468,5.207.612s-3.775,1.9-4.648,2.055c-2.055.351-3.072-.841-4.871-1.427-1.049-.346-1.634-.181-1.246,1.033.288.905,1.331,1.294,2.135,1.634a11.239,11.239,0,0,0,5.436.926,13.191,13.191,0,0,1-5.154-.335c-.958-.245-4.839-2.012-5.356-.548-1.049,2.944,8.508,4.115,10.169,3.54a15.4,15.4,0,0,1-5.207-.011c-1.028-.106-3.439-.469-2.614,1.187,1.225,2.444,6.634.953,9.173.724a18.422,18.422,0,0,1-4.85,1.022c-2.172.346-1.161,1.821,1.123,1.853a25.058,25.058,0,0,0,3.29-.357c4.382-.777,6.4-2.193,9.594-5.052,1.139-1.028,4.318-1.7,4.477-3.024C134.61,299.542,131.783,297.189,130.452,295.464Z" transform="translate(-109.071 -242.387)" fill="#f88667"/>
            <path id="Path_93" data-name="Path 93" d="M116.682,348.7l-4.339-10.052s28.3-16.371,39.5-25.108,24.549-27.716,32.274-28.03,14.811,4.839,9.077,14.806-29.713,21.072-34.829,25.124S121.442,346.775,116.682,348.7Z" transform="translate(-94.923 -285.495)" fill="#01c7e2"/>
          </g>
        </g>
      </g>
    </g>
  </g>
</svg>
