<svg xmlns="http://www.w3.org/2000/svg" width="82.124" height="97.749" viewBox="0 0 82.124 97.749">
  <g id="Group_3" data-name="Group 3" transform="translate(-164.358 -148.063)">
    <g id="Group_2" data-name="Group 2" transform="translate(164.358 148.063)">
      <g id="Group_1" data-name="Group 1" transform="translate(0 0)">
        <path id="Path_1" data-name="Path 1" d="M223.9,163.884a2.388,2.388,0,1,1-2.28,2.387A2.335,2.335,0,0,1,223.9,163.884Z" transform="translate(-194.166 -156.298)" fill="#fff"/>
        <path id="Path_2" data-name="Path 2" d="M240.038,165a1.187,1.187,0,1,1,1.076.712A.575.575,0,0,1,241,165.7l-6.292,6.577a4.941,4.941,0,0,1,1.212,3.26,4.61,4.61,0,1,1-4.6-4.817,4.472,4.472,0,0,1,2.508.777Z" transform="translate(-196.816 -155.947)" fill="#fff"/>
        <path id="Path_3" data-name="Path 3" d="M184.3,157.556a2.83,2.83,0,0,1,2.761-2.89,2.58,2.58,0,0,1,1.2.292l3.214-2.9a1.415,1.415,0,0,1-.111-.556,1.357,1.357,0,1,1,1.354,1.418,1.275,1.275,0,0,1-.367-.057l-3.161,2.857a2.959,2.959,0,0,1,.63,1.839,2.762,2.762,0,1,1-5.519,0Z" transform="translate(-174.74 -149.116)" fill="#fff"/>
        <path id="Path_4" data-name="Path 4" d="M259.744,176.482a2.115,2.115,0,1,1,2.112,2.213A2.162,2.162,0,0,1,259.744,176.482Z" transform="translate(-214.01 -161.706)" fill="#fff"/>
        <path id="Path_5" data-name="Path 5" d="M177.88,207.995a2.712,2.712,0,0,1,0-5.419,2.459,2.459,0,0,1,1.372.413l4.914-5.547a2.973,2.973,0,0,1-.047-3.193l-3.9-4.389a3.656,3.656,0,0,1-2.234.762,3.987,3.987,0,1,1,3.809-3.983,4.091,4.091,0,0,1-.748,2.37l3.884,4.376a2.65,2.65,0,0,1,1.529-.485,2.91,2.91,0,0,1,0,5.814,2.654,2.654,0,0,1-1.461-.434l-4.927,5.562a2.744,2.744,0,0,1,.4,1.443A2.658,2.658,0,0,1,177.88,207.995Z" transform="translate(-169.471 -166.07)" fill="#fff"/>
        <path id="Path_6" data-name="Path 6" d="M207.882,156.67a1.41,1.41,0,0,1,1.379-1.439,1.252,1.252,0,0,1,.474.093l2.861-2.59v0a1.881,1.881,0,0,1-.21-.873,1.751,1.751,0,1,1,1.749,1.828,1.693,1.693,0,0,1-.67-.139l-2.911,2.633a1.517,1.517,0,0,1-.039,1.086h0a1.371,1.371,0,0,1-1.25.848,1.556,1.556,0,0,1-.26-.025A1.431,1.431,0,0,1,207.882,156.67Z" transform="translate(-187.014 -149.084)" fill="#fff"/>
        <ellipse id="Ellipse_3" data-name="Ellipse 3" cx="3.385" cy="3.542" rx="3.385" ry="3.542" transform="translate(0 27.634)" fill="#fff"/>
        <path id="Path_7" data-name="Path 7" d="M257.234,206.326s-5.056,2.255-4.589,5.989l.232,1.828s.388,1.165-1.051,1.632c0,0-1.981.741-.659,1.361a2.127,2.127,0,0,1,1.087,2.18l-.271.659s-3.577,2.063-2.957,4.044a9.048,9.048,0,0,1,1.322,4.1s.506,2.629-3.7,2.84a.074.074,0,0,1-.029,0c-1.479.239-4.19.542-9.146.873a.229.229,0,0,0-.032,0c-.3.047-2.541.485-2.548,3.627v.082c0,2.726.032,5.53.136,7.817.285,6.232-4.226,6.431-5.152,6.406v0H201.852c-1.237-.022-5.227-.538-4.96-6.41.314-6.941-.014-18.613-.014-18.613a3.65,3.65,0,0,0-1.639-2.95,38.729,38.729,0,0,1-7.7-10.518v-.281a34.473,34.473,0,0,0,10.557,1.646c.951,0,1.9-.039,2.825-.114a34.5,34.5,0,0,0,23.366-56.846,20.4,20.4,0,0,1,8.045,1.624h0l.032.011a18.169,18.169,0,0,1,1.771.783s.011,0,.014.007c.079.039.153.075.232.117s.164.082.246.125c.5.26,1.061.573,1.671.94.125.079.249.153.374.235.438.274.895.577,1.365.909q.187.128.374.267.224.16.449.331c.46.346.93.723,1.407,1.126,0,0,.007,0,.011.011.043.039.089.075.135.114l.342.3c.057.05.118.1.175.153q.181.16.363.331c.107.1.213.2.317.3.057.053.117.11.175.167.125.121.253.246.381.374.253.253.506.513.759.787.125.136.253.275.378.413a31.027,31.027,0,0,1,7.542,16.158v2.1s-1.71,9.413,1.326,12.68,5.911,6.844,5.911,6.844S259.568,205.237,257.234,206.326Z" transform="translate(-176.426 -152.031)" fill="#fff"/>
        <path id="Path_8" data-name="Path 8" d="M182.607,247.7a2.388,2.388,0,1,1,2.28-2.387A2.335,2.335,0,0,1,182.607,247.7Z" transform="translate(-172.67 -197.445)" fill="#fff"/>
        <path id="Path_9" data-name="Path 9" d="M256.869,222.157l-3.342,3.78a3.881,3.881,0,0,1,.666,2.188,3.634,3.634,0,1,1-3.63-3.8,3.52,3.52,0,0,1,2.152.741l3.267-3.691a1.7,1.7,0,0,1-.2-.8,1.6,1.6,0,1,1,1.6,1.668A1.555,1.555,0,0,1,256.869,222.157Z" transform="translate(-207.341 -184.939)" fill="#fff"/>
        <path id="Path_10" data-name="Path 10" d="M231.565,150.447a2.281,2.281,0,1,1,4.557,0,2.444,2.444,0,0,1-.242,1.073l.331.4h0l1.978,2.394a1.019,1.019,0,0,1,.256-.032,1.254,1.254,0,1,1-1.2,1.251,1.351,1.351,0,0,1,.068-.421l-2.216-2.68a2.181,2.181,0,0,1-1.258.4,2.156,2.156,0,0,1-1.03-.26h0A2.393,2.393,0,0,1,231.565,150.447Z" transform="translate(-199.342 -148.063)" fill="#fff"/>
        <ellipse id="Ellipse_4" data-name="Ellipse 4" cx="2.28" cy="2.384" rx="2.28" ry="2.384" transform="translate(1.525 9.228)" fill="#fff"/>
        <path id="Path_11" data-name="Path 11" d="M206.1,259.8a1.946,1.946,0,1,1-1.86,1.942A1.9,1.9,0,0,1,206.1,259.8Z" transform="translate(-185.118 -206.229)" fill="#fff"/>
        <path id="Path_12" data-name="Path 12" d="M248.657,197.632a5.63,5.63,0,0,1-5.5,5.751,5.333,5.333,0,0,1-3.556-1.372l-8.188,9.253a3.922,3.922,0,0,1,.089,4.471l3.243,3.648a1.534,1.534,0,0,1,.716-.175,1.667,1.667,0,1,1-1.493,1.087l-3.271-3.688a3.508,3.508,0,0,1-2.17.756,3.8,3.8,0,0,1,0-7.6,3.505,3.505,0,0,1,2.049.663l8.227-9.292a5.885,5.885,0,0,1-1.14-3.506,5.5,5.5,0,1,1,10.992,0Z" transform="translate(-195.872 -170.874)" fill="#fff"/>
        <path id="Path_13" data-name="Path 13" d="M205.951,218.162a.921.921,0,0,1,.011-.143l-4.479-5.045c-.047.035-.089.075-.135.107a6.039,6.039,0,0,1-3.706,1.279,6.527,6.527,0,0,1,0-13.04,5.95,5.95,0,0,1,2.141.4,6.141,6.141,0,0,1,2.017,1.269l6.773-7.646a2.978,2.978,0,0,1-.4-1.5,3.062,3.062,0,0,1,.245-1.2l-6.146-6.922a3.527,3.527,0,0,1-4.728-.275,3.877,3.877,0,0,1-1.13-2.754,3.927,3.927,0,0,1,.488-1.906,3.618,3.618,0,0,1,3.153-1.9,3.725,3.725,0,0,1,3.641,3.809,3.891,3.891,0,0,1-.627,2.141l6.057,6.823a2.678,2.678,0,0,1,1.824-.72,2.91,2.91,0,0,1,0,5.814,2.643,2.643,0,0,1-1.589-.527l-6.773,7.653a6.756,6.756,0,0,1-.267,8.266l4.361,4.906a1.057,1.057,0,0,1,.409-.082,1.2,1.2,0,1,1-1.143,1.2Z" transform="translate(-178.438 -164.104)" fill="#fff"/>
      </g>
      <path id="Path_14" data-name="Path 14" d="M291.4,165.077c-.477-.4-.947-.78-1.407-1.126q-.224-.171-.449-.331-.187-.139-.374-.267c-.47-.331-.927-.634-1.365-.909-.125-.082-.249-.157-.374-.235-.609-.367-1.172-.68-1.671-.94A28.661,28.661,0,0,1,291.4,165.077Z" transform="translate(-227.552 -154.937)" fill="#fff"/>
    </g>
  </g>
</svg>
