<svg id="Iconly_Bold_3_User" data-name="Iconly/Bold/3 User" xmlns="http://www.w3.org/2000/svg" width="95" height="95" viewBox="0 0 95 95">
  <g id="_3_User" data-name="3 User" transform="translate(3.958 15.833)">
    <path id="_3_Friends" data-name="3 Friends" d="M18.162,52.568c0-8.618,11.521-10.848,25.18-10.848,13.58,0,25.176,2.152,25.176,10.769S57,63.334,43.341,63.334C29.758,63.334,18.162,61.179,18.162,52.568Zm57.388,1.6c1.165-10.955-8.108-16.149-10.509-17.346a.177.177,0,0,1-.114-.185.149.149,0,0,1,.128-.1,61.314,61.314,0,0,1,12.839,1.126c4.368.859,7.243,2.611,8.436,5.159a7.63,7.63,0,0,1,0,6.612c-1.824,3.951-7.695,5.223-9.979,5.55a.71.71,0,0,1-.106.008A.723.723,0,0,1,75.55,54.164Zm-64.816.812c-2.28-.328-8.155-1.6-9.975-5.55a7.573,7.573,0,0,1,0-6.608c1.19-2.551,4.061-4.3,8.432-5.166a61.923,61.923,0,0,1,12.839-1.119.146.146,0,0,1,.125.1.182.182,0,0,1-.11.189c-2.4,1.193-11.678,6.388-10.513,17.339a.721.721,0,0,1-.695.823A.729.729,0,0,1,10.734,54.977ZM26.68,16.754a16.662,16.662,0,1,1,33.324,0,16.662,16.662,0,1,1-33.324,0ZM65.561,31.04a13.439,13.439,0,0,1-1.913-.185.628.628,0,0,1-.42-.969,23.121,23.121,0,0,0-.335-26.17.421.421,0,0,1-.064-.438.516.516,0,0,1,.328-.2,13.882,13.882,0,0,1,2.8-.289,14.154,14.154,0,0,1,13.555,17.87A13.893,13.893,0,0,1,65.943,31.045C65.816,31.045,65.688,31.043,65.561,31.04ZM7.567,20.663A14.154,14.154,0,0,1,21.122,2.793a13.971,13.971,0,0,1,2.807.289.532.532,0,0,1,.324.2.414.414,0,0,1-.064.435,23.118,23.118,0,0,0-.331,26.174.63.63,0,0,1-.424.969,12.987,12.987,0,0,1-1.913.185c-.128,0-.254.005-.382.005A13.9,13.9,0,0,1,7.567,20.663Z" fill="#fff"/>
  </g>
</svg>
