<svg id="Iconly_Bold_Message" data-name="Iconly/Bold/Message" xmlns="http://www.w3.org/2000/svg" width="38" height="38" viewBox="0 0 38 38">
  <g id="Message" transform="translate(3.167 4.75)">
    <path id="Message-2" data-name="Message" d="M23.654,28.5H8.011A8.013,8.013,0,0,1,0,20.5V8A8.013,8.013,0,0,1,8.011,0H23.654a8.061,8.061,0,0,1,5.669,2.346A7.935,7.935,0,0,1,31.666,8V20.5A8.013,8.013,0,0,1,23.654,28.5ZM6.388,8.305a1.161,1.161,0,0,0-.846.356,1.21,1.21,0,0,0-.113,1.583l.208.205,7.2,5.622a4.954,4.954,0,0,0,3.088,1.076,5.034,5.034,0,0,0,3.1-1.076l7.144-5.716.127-.127a1.226,1.226,0,0,0-.019-1.583,1.316,1.316,0,0,0-.836-.412l-.067,0a1.2,1.2,0,0,0-.822.318l-7.139,5.7a2.478,2.478,0,0,1-1.578.571,2.521,2.521,0,0,1-1.589-.571L7.125,8.55A1.232,1.232,0,0,0,6.388,8.305Z" fill="#744ed5"/>
  </g>
</svg>
