<svg id="Iconly_Bold_Calling" data-name="Iconly/Bold/Calling" xmlns="http://www.w3.org/2000/svg" width="38" height="38" viewBox="0 0 38 38">
  <g id="Calling" transform="translate(3.166 3.167)">
    <path id="Calling-2" data-name="Calling" d="M20.774,30.79C13.981,27.954,3.6,17.783.859,11.042-.279,8.533-.288,6.462.841,4.908c.449-.73,3.011-3.779,5.305-3.682a2.95,2.95,0,0,1,1.786.935c.879.864,3.367,4.017,3.56,4.942a3.535,3.535,0,0,1-.668,2.565c-.423.741-1.555,2.143-1.26,2.963A18.194,18.194,0,0,0,19.211,22c.8.292,2.2-.839,2.94-1.267a3.5,3.5,0,0,1,2.558-.671c.922.2,4.066,2.747,4.928,3.631a2.938,2.938,0,0,1,.926,1.776c.085,2.347-3.1,5.026-3.684,5.359a4.468,4.468,0,0,1-2.676.835A8.218,8.218,0,0,1,20.774,30.79Zm2.715-18.233h0A5.48,5.48,0,0,0,19.145,8.2a1.362,1.362,0,0,1,.517-2.675,8.194,8.194,0,0,1,6.492,6.508,1.369,1.369,0,0,1-1.073,1.6,1.5,1.5,0,0,1-.262.024A1.361,1.361,0,0,1,23.488,12.557Zm5.472-.118a10.944,10.944,0,0,0-9.7-9.719,1.367,1.367,0,0,1-.687-2.43,1.3,1.3,0,0,1,.99-.278A13.643,13.643,0,0,1,31.658,12.135a1.357,1.357,0,0,1-1.2,1.5,1.117,1.117,0,0,1-.154.01A1.356,1.356,0,0,1,28.96,12.439Z" transform="translate(0 0)" fill="#744ed5"/>
  </g>
</svg>
