<svg id="Iconly_Bold_Shield_Done" data-name="Iconly/Bold/Shield Done" xmlns="http://www.w3.org/2000/svg" width="95" height="95" viewBox="0 0 95 95">
  <g id="Shield_Done" data-name="Shield Done" transform="translate(13.854 7.917)">
    <path id="Shield_Done-2" data-name="Shield Done" d="M33.968,79.166a3,3,0,0,1-1.4-.342L18.315,71.449a33.48,33.48,0,0,1-9.683-7.193A32.657,32.657,0,0,1,.168,42.589L0,16.323A7.175,7.175,0,0,1,4.863,9.551L31.037.42A7.479,7.479,0,0,1,35.907.4L62.18,9.209a7.163,7.163,0,0,1,4.945,6.712L67.292,42.2a32.622,32.622,0,0,1-8.176,21.753,33.439,33.439,0,0,1-9.587,7.3L35.408,78.809a3.117,3.117,0,0,1-1.418.356ZM23.35,35.652a3.024,3.024,0,0,0-2.132.867,2.856,2.856,0,0,0,.028,4.115l7.585,7.3a3,3,0,0,0,2.091.841h.028A3.014,3.014,0,0,0,33.06,47.9L48.493,32.689a2.856,2.856,0,0,0-.025-4.115,3.044,3.044,0,0,0-4.225.021L30.908,41.742,25.447,36.49A3.01,3.01,0,0,0,23.35,35.652Z" transform="translate(0 0)" fill="#fff"/>
  </g>
</svg>
