<svg id="Iconly_Bold_Discount" data-name="Iconly/Bold/Discount" xmlns="http://www.w3.org/2000/svg" width="84" height="84" viewBox="0 0 84 84">
  <g id="Discount" transform="translate(6.998 7.003)">
    <path id="Discount-2" data-name="Discount" d="M35.023,69.983a10.583,10.583,0,0,1-7.459-3.04l-2.555-2.561A5.212,5.212,0,0,0,21.3,62.848H17.692a10.552,10.552,0,0,1-10.54-10.54v-3.6a5.383,5.383,0,0,0-1.54-3.748l-2.52-2.485a10.572,10.572,0,0,1-.035-14.906l2.555-2.561a5.257,5.257,0,0,0,1.54-3.745V17.693a10.547,10.547,0,0,1,10.54-10.53H21.3a5.288,5.288,0,0,0,3.711-1.544l2.52-2.52a10.561,10.561,0,0,1,14.915-.031L45,5.619a5.217,5.217,0,0,0,3.711,1.544h3.607a10.546,10.546,0,0,1,10.537,10.53V21.3a5.2,5.2,0,0,0,1.543,3.7l2.52,2.52A10.606,10.606,0,0,1,66.989,42.4c-.023.025-.046.048-.069.07l-.035.034L64.4,44.994a5.209,5.209,0,0,0-1.543,3.714v3.6a10.55,10.55,0,0,1-10.537,10.54H48.713A5.212,5.212,0,0,0,45,64.382L42.479,66.9A10.451,10.451,0,0,1,35.023,69.983Zm9-29.049a3.062,3.062,0,1,0,3.046,3.046A3.069,3.069,0,0,0,44.022,40.933Zm-.019-18a3.032,3.032,0,0,0-2.155.891l-18,17.99a3.08,3.08,0,0,0,0,4.338,2.9,2.9,0,0,0,2.136.91,2.931,2.931,0,0,0,2.17-.91l18-17.986A3.061,3.061,0,0,0,44,22.929Zm-17.98.015a3.062,3.062,0,1,0,3.046,3.043A3.065,3.065,0,0,0,26.023,22.944Z" transform="translate(0 0)" fill="#fff"/>
  </g>
</svg>
